<svg xmlns="http://www.w3.org/2000/svg" xmlns:xlink="http://www.w3.org/1999/xlink" version="1.1" class="marks" width="249" height="247" viewBox="0 0 249 247"><rect width="249" height="247" fill="#202124"/><g fill="none" stroke-miterlimit="10" transform="translate(44,10)"><g class="mark-group role-frame root" role="graphics-object" aria-roledescription="group mark container"><g transform="translate(0,0)"><path class="background" aria-hidden="true" d="M0.5,0.5h200v200h-200Z" stroke="#ddd" stroke-opacity="0"/><g><g class="mark-group role-axis" aria-hidden="true"><g transform="translate(0.5,200.5)"><path class="background" aria-hidden="true" d="M0,0h0v0h0Z" pointer-events="none"/><g><g class="mark-rule role-axis-grid" pointer-events="none"><line transform="translate(0,-200)" x2="0" y2="200" stroke="#ddd" stroke-opacity="0.2" stroke-width="1" opacity="1"/><line transform="translate(44,-200)" x2="0" y2="200" stroke="#ddd" stroke-opacity="0.2" stroke-width="1" opacity="1"/><line transform="translate(89,-200)" x2="0" y2="200" stroke="#ddd" stroke-opacity="0.2" stroke-width="1" opacity="1"/><line transform="translate(133,-200)" x2="0" y2="200" stroke="#ddd" stroke-opacity="0.2" stroke-width="1" opacity="1"/><line transform="translate(178,-200)" x2="0" y2="200" stroke="#ddd" stroke-opacity="0.2" stroke-width="1" opacity="1"/></g></g><path class="foreground" aria-hidden="true" d="" pointer-events="none" display="none"/></g></g><g class="mark-group role-axis" aria-hidden="true"><g transform="translate(0.5,0.5)"><path class="background" aria-hidden="true" d="M0,0h0v0h0Z" pointer-events="none"/><g><g class="mark-rule role-axis-grid" pointer-events="none"><line transform="translate(0,200)" x2="200" y2="0" stroke="#ddd" stroke-opacity="0.2" stroke-width="1" opacity="1"/><line transform="translate(0,150)" x2="200" y2="0" stroke="#ddd" stroke-opacity="0.2" stroke-width="1" opacity="1"/><line transform="translate(0,100)" x2="200" y2="0" stroke="#ddd" stroke-opacity="0.2" stroke-width="1" opacity="1"/><line transform="translate(0,50)" x2="200" y2="0" stroke="#ddd" stroke-opacity="0.2" stroke-width="1" opacity="1"/><line transform="translate(0,0)" x2="200" y2="0" stroke="#ddd" stroke-opacity="0.2" stroke-width="1" opacity="1"/></g></g><path class="foreground" aria-hidden="true" d="" pointer-events="none" display="none"/></g></g><g class="mark-group role-axis" role="graphics-symbol" aria-roledescription="axis" aria-label="X-axis titled 'rain' for a linear scale with values from 0 to 9"><g transform="translate(0.5,200.5)"><path class="background" aria-hidden="true" d="M0,0h0v0h0Z" pointer-events="none"/><g><g class="mark-rule role-axis-tick" pointer-events="none"><line transform="translate(0,0)" x2="0" y2="5" stroke="#888" stroke-width="1" opacity="1"/><line transform="translate(44,0)" x2="0" y2="5" stroke="#888" stroke-width="1" opacity="1"/><line transform="translate(89,0)" x2="0" y2="5" stroke="#888" stroke-width="1" opacity="1"/><line transform="translate(133,0)" x2="0" y2="5" stroke="#888" stroke-width="1" opacity="1"/><line transform="translate(178,0)" x2="0" y2="5" stroke="#888" stroke-width="1" opacity="1"/></g><g class="mark-text role-axis-label" pointer-events="none"><text text-anchor="start" transform="translate(0,15)" font-family="sans-serif" font-size="10px" fill="white" opacity="1">0</text><text text-anchor="middle" transform="translate(44.44444444444444,15)" font-family="sans-serif" font-size="10px" fill="white" opacity="1">2</text><text text-anchor="middle" transform="translate(88.88888888888889,15)" font-family="sans-serif" font-size="10px" fill="white" opacity="1">4</text><text text-anchor="middle" transform="translate(133.33333333333331,15)" font-family="sans-serif" font-size="10px" fill="white" opacity="1">6</text><text text-anchor="middle" transform="translate(177.77777777777777,15)" font-family="sans-serif" font-size="10px" fill="white" opacity="1">8</text></g><g class="mark-rule role-axis-domain" pointer-events="none"><line transform="translate(0,0)" x2="200" y2="0" stroke="#888" stroke-width="1" opacity="1"/></g><g class="mark-text role-axis-title" pointer-events="none"><text text-anchor="middle" transform="translate(100,30)" font-family="sans-serif" font-size="11px" font-weight="bold" fill="white" opacity="1">rain</text></g></g><path class="foreground" aria-hidden="true" d="" pointer-events="none" display="none"/></g></g><g class="mark-group role-axis" role="graphics-symbol" aria-roledescription="axis" aria-label="Y-axis titled 'yield' for a linear scale with values from 0 to 200"><g transform="translate(0.5,0.5)"><path class="background" aria-hidden="true" d="M0,0h0v0h0Z" pointer-events="none"/><g><g class="mark-rule role-axis-tick" pointer-events="none"><line transform="translate(0,200)" x2="-5" y2="0" stroke="#888" stroke-width="1" opacity="1"/><line transform="translate(0,150)" x2="-5" y2="0" stroke="#888" stroke-width="1" opacity="1"/><line transform="translate(0,100)" x2="-5" y2="0" stroke="#888" stroke-width="1" opacity="1"/><line transform="translate(0,50)" x2="-5" y2="0" stroke="#888" stroke-width="1" opacity="1"/><line transform="translate(0,0)" x2="-5" y2="0" stroke="#888" stroke-width="1" opacity="1"/></g><g class="mark-text role-axis-label" pointer-events="none"><text text-anchor="end" transform="translate(-7,203)" font-family="sans-serif" font-size="10px" fill="white" opacity="1">0</text><text text-anchor="end" transform="translate(-7,153)" font-family="sans-serif" font-size="10px" fill="white" opacity="1">50</text><text text-anchor="end" transform="translate(-7,103)" font-family="sans-serif" font-size="10px" fill="white" opacity="1">100</text><text text-anchor="end" transform="translate(-7,53)" font-family="sans-serif" font-size="10px" fill="white" opacity="1">150</text><text text-anchor="end" transform="translate(-7,3)" font-family="sans-serif" font-size="10px" fill="white" opacity="1">200</text></g><g class="mark-rule role-axis-domain" pointer-events="none"><line transform="translate(0,200)" x2="0" y2="-200" stroke="#888" stroke-width="1" opacity="1"/></g><g class="mark-text role-axis-title" pointer-events="none"><text text-anchor="middle" transform="translate(-27.6845703125,100) rotate(-90) translate(0,-2)" font-family="sans-serif" font-size="11px" font-weight="bold" fill="white" opacity="1">yield</text></g></g><path class="foreground" aria-hidden="true" d="" pointer-events="none" display="none"/></g></g><g class="mark-symbol role-mark marks" role="graphics-object" aria-roledescription="symbol mark container"><path aria-label="rain: 4.07; yield: 124" role="graphics-symbol" aria-roledescription="circle" transform="translate(90.44444444444444,76)" d="M2.739,0A2.739,2.739,0,1,1,-2.739,0A2.739,2.739,0,1,1,2.739,0" fill="#f7d060" fill-opacity="1" stroke="#f7d060" stroke-width="2"/><path aria-label="rain: 2.23; yield: 37" role="graphics-symbol" aria-roledescription="circle" transform="translate(49.55555555555555,163)" d="M2.739,0A2.739,2.739,0,1,1,-2.739,0A2.739,2.739,0,1,1,2.739,0" fill="#f7d060" fill-opacity="1" stroke="#f7d060" stroke-width="2"/><path aria-label="rain: 2.68; yield: 49" role="graphics-symbol" aria-roledescription="circle" transform="translate(59.555555555555564,151)" d="M2.739,0A2.739,2.739,0,1,1,-2.739,0A2.739,2.739,0,1,1,2.739,0" fill="#f7d060" fill-opacity="1" stroke="#f7d060" stroke-width="2"/><path aria-label="rain: 4.36; yield: 77" role="graphics-symbol" aria-roledescription="circle" transform="translate(96.88888888888889,123)" d="M2.739,0A2.739,2.739,0,1,1,-2.739,0A2.739,2.739,0,1,1,2.739,0" fill="#f7d060" fill-opacity="1" stroke="#f7d060" stroke-width="2"/><path aria-label="rain: 3.27; yield: 90" role="graphics-symbol" aria-roledescription="circle" transform="translate(72.66666666666667,110.00000000000001)" d="M2.739,0A2.739,2.739,0,1,1,-2.739,0A2.739,2.739,0,1,1,2.739,0" fill="#f7d060" fill-opacity="1" stroke="#f7d060" stroke-width="2"/><path aria-label="rain: 8.01; yield: 137" role="graphics-symbol" aria-roledescription="circle" transform="translate(178,62.999999999999986)" d="M2.739,0A2.739,2.739,0,1,1,-2.739,0A2.739,2.739,0,1,1,2.739,0" fill="#f7d060" fill-opacity="1" stroke="#f7d060" stroke-width="2"/><path aria-label="rain: 2.51; yield: 90" role="graphics-symbol" aria-roledescription="circle" transform="translate(55.77777777777777,110.00000000000001)" d="M2.739,0A2.739,2.739,0,1,1,-2.739,0A2.739,2.739,0,1,1,2.739,0" fill="#f7d060" fill-opacity="1" stroke="#f7d060" stroke-width="2"/><path aria-label="rain: 6.79; yield: 139" role="graphics-symbol" aria-roledescription="circle" transform="translate(150.88888888888889,61.00000000000001)" d="M2.739,0A2.739,2.739,0,1,1,-2.739,0A2.739,2.739,0,1,1,2.739,0" fill="#f7d060" fill-opacity="1" stroke="#f7d060" stroke-width="2"/><path aria-label="rain: 2.71; yield: 66" role="graphics-symbol" aria-roledescription="circle" transform="translate(60.22222222222222,134)" d="M2.739,0A2.739,2.739,0,1,1,-2.739,0A2.739,2.739,0,1,1,2.739,0" fill="#f7d060" fill-opacity="1" stroke="#f7d060" stroke-width="2"/><path aria-label="rain: 2.98; yield: 61" role="graphics-symbol" aria-roledescription="circle" transform="translate(66.22222222222223,139)" d="M2.739,0A2.739,2.739,0,1,1,-2.739,0A2.739,2.739,0,1,1,2.739,0" fill="#f7d060" fill-opacity="1" stroke="#f7d060" stroke-width="2"/><path aria-label="rain: 3.32; yield: 103" role="graphics-symbol" aria-roledescription="circle" transform="translate(73.77777777777777,97)" d="M2.739,0A2.739,2.739,0,1,1,-2.739,0A2.739,2.739,0,1,1,2.739,0" fill="#f7d060" fill-opacity="1" stroke="#f7d060" stroke-width="2"/><path aria-label="rain: 2.25; yield: 8" role="graphics-symbol" aria-roledescription="circle" transform="translate(50,192)" d="M2.739,0A2.739,2.739,0,1,1,-2.739,0A2.739,2.739,0,1,1,2.739,0" fill="#f7d060" fill-opacity="1" stroke="#f7d060" stroke-width="2"/><path aria-label="rain: 3.23; yield: 65" role="graphics-symbol" aria-roledescription="circle" transform="translate(71.77777777777777,135)" d="M2.739,0A2.739,2.739,0,1,1,-2.739,0A2.739,2.739,0,1,1,2.739,0" fill="#f7d060" fill-opacity="1" stroke="#f7d060" stroke-width="2"/><path aria-label="rain: 2.52; yield: 48" role="graphics-symbol" aria-roledescription="circle" transform="translate(56.00000000000001,152)" d="M2.739,0A2.739,2.739,0,1,1,-2.739,0A2.739,2.739,0,1,1,2.739,0" fill="#f7d060" fill-opacity="1" stroke="#f7d060" stroke-width="2"/><path aria-label="rain: 1.5; yield: 54" role="graphics-symbol" aria-roledescription="circle" transform="translate(33.33333333333333,146)" d="M2.739,0A2.739,2.739,0,1,1,-2.739,0A2.739,2.739,0,1,1,2.739,0" fill="#f7d060" fill-opacity="1" stroke="#f7d060" stroke-width="2"/><path aria-label="rain: 1.33; yield: 6" role="graphics-symbol" aria-roledescription="circle" transform="translate(29.555555555555557,194)" d="M2.739,0A2.739,2.739,0,1,1,-2.739,0A2.739,2.739,0,1,1,2.739,0" fill="#f7d060" fill-opacity="1" stroke="#f7d060" stroke-width="2"/><path aria-label="rain: 5.7; yield: 126" role="graphics-symbol" aria-roledescription="circle" transform="translate(126.66666666666666,74)" d="M2.739,0A2.739,2.739,0,1,1,-2.739,0A2.739,2.739,0,1,1,2.739,0" fill="#f7d060" fill-opacity="1" stroke="#f7d060" stroke-width="2"/><path aria-label="rain: 0.94; yield: 1" role="graphics-symbol" aria-roledescription="circle" transform="translate(20.888888888888886,199)" d="M2.739,0A2.739,2.739,0,1,1,-2.739,0A2.739,2.739,0,1,1,2.739,0" fill="#f7d060" fill-opacity="1" stroke="#f7d060" stroke-width="2"/><path aria-label="rain: 5.62; yield: 128" role="graphics-symbol" aria-roledescription="circle" transform="translate(124.8888888888889,72)" d="M2.739,0A2.739,2.739,0,1,1,-2.739,0A2.739,2.739,0,1,1,2.739,0" fill="#f7d060" fill-opacity="1" stroke="#f7d060" stroke-width="2"/><path aria-label="rain: 5.43; yield: 135" role="graphics-symbol" aria-roledescription="circle" transform="translate(120.66666666666666,64.99999999999999)" d="M2.739,0A2.739,2.739,0,1,1,-2.739,0A2.739,2.739,0,1,1,2.739,0" fill="#f7d060" fill-opacity="1" stroke="#f7d060" stroke-width="2"/><path aria-label="rain: 4.08; yield: 70" role="graphics-symbol" aria-roledescription="circle" transform="translate(90.66666666666667,130)" d="M2.739,0A2.739,2.739,0,1,1,-2.739,0A2.739,2.739,0,1,1,2.739,0" fill="#f7d060" fill-opacity="1" stroke="#f7d060" stroke-width="2"/><path aria-label="rain: 0.34; yield: 28" role="graphics-symbol" aria-roledescription="circle" transform="translate(7.555555555555555,172)" d="M2.739,0A2.739,2.739,0,1,1,-2.739,0A2.739,2.739,0,1,1,2.739,0" fill="#f7d060" fill-opacity="1" stroke="#f7d060" stroke-width="2"/><path aria-label="rain: 0.89; yield: 36" role="graphics-symbol" aria-roledescription="circle" transform="translate(19.77777777777778,164)" d="M2.739,0A2.739,2.739,0,1,1,-2.739,0A2.739,2.739,0,1,1,2.739,0" fill="#f7d060" fill-opacity="1" stroke="#f7d060" stroke-width="2"/><path aria-label="rain: 0.99; yield: 30" role="graphics-symbol" aria-roledescription="circle" transform="translate(22,170)" d="M2.739,0A2.739,2.739,0,1,1,-2.739,0A2.739,2.739,0,1,1,2.739,0" fill="#f7d060" fill-opacity="1" stroke="#f7d060" stroke-width="2"/><path aria-label="rain: 5.29; yield: 138" role="graphics-symbol" aria-roledescription="circle" transform="translate(117.55555555555554,62.000000000000014)" d="M2.739,0A2.739,2.739,0,1,1,-2.739,0A2.739,2.739,0,1,1,2.739,0" fill="#f7d060" fill-opacity="1" stroke="#f7d060" stroke-width="2"/><path aria-label="rain: 4.38; yield: 85" role="graphics-symbol" aria-roledescription="circle" transform="translate(97.33333333333333,114.99999999999999)" d="M2.739,0A2.739,2.739,0,1,1,-2.739,0A2.739,2.739,0,1,1,2.739,0" fill="#f7d060" fill-opacity="1" stroke="#f7d060" stroke-width="2"/><path aria-label="rain: 3.66; yield: 79" role="graphics-symbol" aria-roledescription="circle" transform="translate(81.33333333333333,121)" d="M2.739,0A2.739,2.739,0,1,1,-2.739,0A2.739,2.739,0,1,1,2.739,0" fill="#f7d060" fill-opacity="1" stroke="#f7d060" stroke-width="2"/><path aria-label="rain: 3.83; yield: 67" role="graphics-symbol" aria-roledescription="circle" transform="translate(85.11111111111111,133)" d="M2.739,0A2.739,2.739,0,1,1,-2.739,0A2.739,2.739,0,1,1,2.739,0" fill="#f7d060" fill-opacity="1" stroke="#f7d060" stroke-width="2"/><path aria-label="rain: 2.79; yield: 56" role="graphics-symbol" aria-roledescription="circle" transform="translate(62,144)" d="M2.739,0A2.739,2.739,0,1,1,-2.739,0A2.739,2.739,0,1,1,2.739,0" fill="#f7d060" fill-opacity="1" stroke="#f7d060" stroke-width="2"/><path aria-label="rain: 2.6; yield: 68" role="graphics-symbol" aria-roledescription="circle" transform="translate(57.777777777777786,131.99999999999997)" d="M2.739,0A2.739,2.739,0,1,1,-2.739,0A2.739,2.739,0,1,1,2.739,0" fill="#f7d060" fill-opacity="1" stroke="#f7d060" stroke-width="2"/><path aria-label="rain: 3.98; yield: 76" role="graphics-symbol" aria-roledescription="circle" transform="translate(88.44444444444444,124)" d="M2.739,0A2.739,2.739,0,1,1,-2.739,0A2.739,2.739,0,1,1,2.739,0" fill="#f7d060" fill-opacity="1" stroke="#f7d060" stroke-width="2"/><path aria-label="rain: 4.69; yield: 98" role="graphics-symbol" aria-roledescription="circle" transform="translate(104.22222222222224,102)" d="M2.739,0A2.739,2.739,0,1,1,-2.739,0A2.739,2.739,0,1,1,2.739,0" fill="#f7d060" fill-opacity="1" stroke="#f7d060" stroke-width="2"/><path aria-label="rain: 3.44; yield: 63" role="graphics-symbol" aria-roledescription="circle" transform="translate(76.44444444444444,137)" d="M2.739,0A2.739,2.739,0,1,1,-2.739,0A2.739,2.739,0,1,1,2.739,0" fill="#f7d060" fill-opacity="1" stroke="#f7d060" stroke-width="2"/><path aria-label="rain: 4.17; yield: 77" role="graphics-symbol" aria-roledescription="circle" transform="translate(92.66666666666666,123)" d="M2.739,0A2.739,2.739,0,1,1,-2.739,0A2.739,2.739,0,1,1,2.739,0" fill="#f7d060" fill-opacity="1" stroke="#f7d060" stroke-width="2"/><path aria-label="rain: 8.53; yield: 181" role="graphics-symbol" aria-roledescription="circle" transform="translate(189.55555555555554,18.999999999999993)" d="M2.739,0A2.739,2.739,0,1,1,-2.739,0A2.739,2.739,0,1,1,2.739,0" fill="#f7d060" fill-opacity="1" stroke="#f7d060" stroke-width="2"/><path aria-label="rain: 7.01; yield: 159" role="graphics-symbol" aria-roledescription="circle" transform="translate(155.77777777777777,40.99999999999999)" d="M2.739,0A2.739,2.739,0,1,1,-2.739,0A2.739,2.739,0,1,1,2.739,0" fill="#f7d060" fill-opacity="1" stroke="#f7d060" stroke-width="2"/><path aria-label="rain: 5.63; yield: 105" role="graphics-symbol" aria-roledescription="circle" transform="translate(125.1111111111111,95)" d="M2.739,0A2.739,2.739,0,1,1,-2.739,0A2.739,2.739,0,1,1,2.739,0" fill="#f7d060" fill-opacity="1" stroke="#f7d060" stroke-width="2"/><path aria-label="rain: 1.05; yield: 26" role="graphics-symbol" aria-roledescription="circle" transform="translate(23.333333333333332,174)" d="M2.739,0A2.739,2.739,0,1,1,-2.739,0A2.739,2.739,0,1,1,2.739,0" fill="#f7d060" fill-opacity="1" stroke="#f7d060" stroke-width="2"/><path aria-label="rain: 3.7; yield: 116" role="graphics-symbol" aria-roledescription="circle" transform="translate(82.22222222222223,84.00000000000001)" d="M2.739,0A2.739,2.739,0,1,1,-2.739,0A2.739,2.739,0,1,1,2.739,0" fill="#f7d060" fill-opacity="1" stroke="#f7d060" stroke-width="2"/><path aria-label="rain: 3.68; yield: 97" role="graphics-symbol" aria-roledescription="circle" transform="translate(81.77777777777779,103)" d="M2.739,0A2.739,2.739,0,1,1,-2.739,0A2.739,2.739,0,1,1,2.739,0" fill="#f7d060" fill-opacity="1" stroke="#f7d060" stroke-width="2"/><path aria-label="rain: 4.7; yield: 102" role="graphics-symbol" aria-roledescription="circle" transform="translate(104.44444444444446,98)" d="M2.739,0A2.739,2.739,0,1,1,-2.739,0A2.739,2.739,0,1,1,2.739,0" fill="#f7d060" fill-opacity="1" stroke="#f7d060" stroke-width="2"/><path aria-label="rain: 3.62; yield: 63" role="graphics-symbol" aria-roledescription="circle" transform="translate(80.44444444444446,137)" d="M2.739,0A2.739,2.739,0,1,1,-2.739,0A2.739,2.739,0,1,1,2.739,0" fill="#f7d060" fill-opacity="1" stroke="#f7d060" stroke-width="2"/><path aria-label="rain: 1.8; yield: 24" role="graphics-symbol" aria-roledescription="circle" transform="translate(40,176)" d="M2.739,0A2.739,2.739,0,1,1,-2.739,0A2.739,2.739,0,1,1,2.739,0" fill="#f7d060" fill-opacity="1" stroke="#f7d060" stroke-width="2"/><path aria-label="rain: 2.78; yield: 95" role="graphics-symbol" aria-roledescription="circle" transform="translate(61.77777777777778,105)" d="M2.739,0A2.739,2.739,0,1,1,-2.739,0A2.739,2.739,0,1,1,2.739,0" fill="#f7d060" fill-opacity="1" stroke="#f7d060" stroke-width="2"/><path aria-label="rain: 0.64; yield: 13" role="graphics-symbol" aria-roledescription="circle" transform="translate(14.222222222222221,187)" d="M2.739,0A2.739,2.739,0,1,1,-2.739,0A2.739,2.739,0,1,1,2.739,0" fill="#f7d060" fill-opacity="1" stroke="#f7d060" stroke-width="2"/><path aria-label="rain: 4.37; yield: 86" role="graphics-symbol" aria-roledescription="circle" transform="translate(97.11111111111111,114.00000000000001)" d="M2.739,0A2.739,2.739,0,1,1,-2.739,0A2.739,2.739,0,1,1,2.739,0" fill="#f7d060" fill-opacity="1" stroke="#f7d060" stroke-width="2"/><path aria-label="rain: 0.86; yield: 21" role="graphics-symbol" aria-roledescription="circle" transform="translate(19.11111111111111,179)" d="M2.739,0A2.739,2.739,0,1,1,-2.739,0A2.739,2.739,0,1,1,2.739,0" fill="#f7d060" fill-opacity="1" stroke="#f7d060" stroke-width="2"/><path aria-label="rain: 5.19; yield: 159" role="graphics-symbol" aria-roledescription="circle" transform="translate(115.33333333333333,40.99999999999999)" d="M2.739,0A2.739,2.739,0,1,1,-2.739,0A2.739,2.739,0,1,1,2.739,0" fill="#f7d060" fill-opacity="1" stroke="#f7d060" stroke-width="2"/><path aria-label="rain: 5.42; yield: 125" role="graphics-symbol" aria-roledescription="circle" transform="translate(120.44444444444444,75)" d="M2.739,0A2.739,2.739,0,1,1,-2.739,0A2.739,2.739,0,1,1,2.739,0" fill="#f7d060" fill-opacity="1" stroke="#f7d060" stroke-width="2"/><path aria-label="rain: 2.43; yield: 66" role="graphics-symbol" aria-roledescription="circle" transform="translate(54,134)" d="M2.739,0A2.739,2.739,0,1,1,-2.739,0A2.739,2.739,0,1,1,2.739,0" fill="#f7d060" fill-opacity="1" stroke="#f7d060" stroke-width="2"/></g></g><path class="foreground" aria-hidden="true" d="" display="none"/></g></g></g></svg>