<?xml version="1.0" encoding="UTF-8" standalone="no"?>
<!-- Created with Inkscape (http://www.inkscape.org/) -->

<svg
   width="210mm"
   height="70mm"
   viewBox="0 0 210 70"
   version="1.1"
   id="svg5"
   inkscape:version="1.1.2 (0a00cf5339, 2022-02-04)"
   sodipodi:docname="3-shirt-2-pants.svg"
   inkscape:export-filename="/home/kai/Dropbox/org/misc/3-shirt-2-pants.png"
   inkscape:export-xdpi="800"
   inkscape:export-ydpi="800"
   xmlns:inkscape="http://www.inkscape.org/namespaces/inkscape"
   xmlns:sodipodi="http://sodipodi.sourceforge.net/DTD/sodipodi-0.dtd"
   xmlns="http://www.w3.org/2000/svg"
   xmlns:svg="http://www.w3.org/2000/svg">
  <sodipodi:namedview
     id="namedview7"
     pagecolor="#505050"
     bordercolor="#eeeeee"
     borderopacity="1"
     inkscape:pageshadow="0"
     inkscape:pageopacity="0"
     inkscape:pagecheckerboard="0"
     inkscape:document-units="mm"
     showgrid="false"
     height="50mm"
     inkscape:snap-page="true"
     inkscape:zoom="1.1326109"
     inkscape:cx="316.52531"
     inkscape:cy="52.974946"
     inkscape:window-width="2560"
     inkscape:window-height="1412"
     inkscape:window-x="2560"
     inkscape:window-y="0"
     inkscape:window-maximized="1"
     inkscape:current-layer="layer2" />
  <defs
     id="defs2" />
  <g
     inkscape:label="bg"
     inkscape:groupmode="layer"
     id="layer1"
     sodipodi:insensitive="true">
    <rect
       style="opacity:0.71248;fill:#369f62;fill-opacity:1;stroke:none;stroke-width:2.64583;stroke-linecap:round;stop-color:#000000"
       id="rect846"
       width="210"
       height="70"
       x="0"
       y="0" />
  </g>
  <g
     inkscape:groupmode="layer"
     id="layer2"
     inkscape:label="clothes">
    <path
       style="fill:#ffffff;fill-opacity:1;stroke:none;stroke-width:0.264583px;stroke-linecap:butt;stroke-linejoin:miter;stroke-opacity:1"
       d="m 19.294992,26.973554 c 1.804304,1.093439 3.786606,1.625492 6.476497,-0.0741 l 7.691943,4.804648 -3.886995,4.716512 -3.412314,-1.851297 0.298548,10.280734 -8.447328,0.345797 0.0443,-10.63518 -3.459619,2.774187 -3.009922,-3.772966 z"
       id="path1827"
       sodipodi:nodetypes="ccccccccccc" />
    <path
       style="fill:#ffffff;fill-opacity:1;stroke:none;stroke-width:0.264583px;stroke-linecap:butt;stroke-linejoin:miter;stroke-opacity:1"
       d="m 65.797952,27.505246 c -1.124346,1.208672 -1.543052,2.882352 -3.375943,2.967386 -1.166516,0.05412 -1.793138,-1.679018 -3.100554,-3.041486 l -5.055721,3.731682 1.808449,3.945188 2.198943,-0.784404 -0.361942,10.272834 9.45214,0.06771 0.320226,-9.916737 3.217269,1.281173 1.829177,-4.299336 z"
       id="path1827-3"
       sodipodi:nodetypes="cscccccccccc" />
    <path
       style="fill:#ffffff;fill-opacity:1;stroke:none;stroke-width:0.264583px;stroke-linecap:butt;stroke-linejoin:miter;stroke-opacity:1"
       d="m 100.163,27.664249 c 2.36962,2.414605 4.13185,1.853548 6.4765,-0.0741 l 13.41364,11.142167 -1.5277,2.487582 -11.49331,-5.959886 0.3496,9.092444 -8.713627,0.152696 0.25955,-9.253789 -11.066456,5.63796 -0.916023,-2.787893 z"
       id="path1827-3-6"
       sodipodi:nodetypes="ccccccccccc" />
    <path
       id="rect3917"
       style="fill:#ffffff;fill-opacity:1;stroke-width:2.64583;stroke-linecap:round;stop-color:#000000"
       d="m 139.08662,28.924546 c 3.42936,0.852937 7.67816,0.61567 11.35089,-0.19769 l 1.08192,13.915435 -4.66725,-0.304487 c 0,0 0.57939,-5.600049 -2.43588,-5.453285 -3.46633,0.168719 -2.44305,6.483927 -2.44305,6.483927 l -4.39121,-0.343597 z"
       sodipodi:nodetypes="ccccsccc" />
    <path
       id="rect3919"
       style="fill:#ffffff;fill-opacity:1;stroke-width:2.64583;stroke-linecap:round;stop-color:#000000"
       d="m 178.17598,22.449889 c 3.77605,1.054488 7.67228,1.396821 11.83763,0.144378 l 0.51611,27.051146 -4.65988,-0.265005 c 0,0 0.18817,-17.229241 -2.46723,-17.292661 -2.6554,-0.06342 -2.18343,17.370545 -2.18343,17.370545 l -3.66733,0.187121 z"
       sodipodi:nodetypes="cccczccc" />
  </g>
</svg>
