<?xml version="1.0" encoding="UTF-8" standalone="no"?>
<!-- Created with Inkscape (http://www.inkscape.org/) -->

<svg
   width="210mm"
   height="70mm"
   viewBox="0 0 210 70"
   version="1.1"
   id="svg5"
   inkscape:version="1.1.2 (0a00cf5339, 2022-02-04)"
   sodipodi:docname="addition-principle.svg"
   inkscape:export-filename="/home/kai/Dropbox/org/misc/3-shirt-2-pants.png"
   inkscape:export-xdpi="800"
   inkscape:export-ydpi="800"
   xmlns:inkscape="http://www.inkscape.org/namespaces/inkscape"
   xmlns:sodipodi="http://sodipodi.sourceforge.net/DTD/sodipodi-0.dtd"
   xmlns="http://www.w3.org/2000/svg"
   xmlns:svg="http://www.w3.org/2000/svg">
  <sodipodi:namedview
     id="namedview7"
     pagecolor="#505050"
     bordercolor="#eeeeee"
     borderopacity="1"
     inkscape:pageshadow="0"
     inkscape:pageopacity="0"
     inkscape:pagecheckerboard="0"
     inkscape:document-units="mm"
     showgrid="false"
     height="50mm"
     inkscape:snap-page="true"
     inkscape:zoom="1.1326109"
     inkscape:cx="287.83053"
     inkscape:cy="52.974945"
     inkscape:window-width="2560"
     inkscape:window-height="1412"
     inkscape:window-x="2560"
     inkscape:window-y="0"
     inkscape:window-maximized="1"
     inkscape:current-layer="layer1" />
  <defs
     id="defs2" />
  <g
     inkscape:label="bg"
     inkscape:groupmode="layer"
     id="layer1">
    <rect
       style="opacity:0.71248;fill:#4191b3;fill-opacity:1;stroke:none;stroke-width:2.64583;stroke-linecap:round;stop-color:#000000"
       id="rect846"
       width="210"
       height="70"
       x="0"
       y="0" />
  </g>
  <g
     inkscape:groupmode="layer"
     id="layer2"
     inkscape:label="clothes"
     sodipodi:insensitive="true">
    <path
       style="fill:#ffffff;fill-opacity:1;stroke:none;stroke-width:0.264583px;stroke-linecap:butt;stroke-linejoin:miter;stroke-opacity:1"
       d="m 16.944735,9.1025169 c 1.804304,1.0934391 3.786606,1.6254921 6.476497,-0.0741 l 7.691943,4.8046481 -3.886995,4.716512 -3.412314,-1.851297 0.298548,10.280734 -8.447328,0.345797 0.0443,-10.63518 -3.459622,2.774187 -3.0099229,-3.772966 z"
       id="path1827"
       sodipodi:nodetypes="ccccccccccc" />
    <path
       style="fill:#ffffff;fill-opacity:1;stroke:none;stroke-width:0.264583px;stroke-linecap:butt;stroke-linejoin:miter;stroke-opacity:1"
       d="m 39.849422,46.673453 c 1.804304,1.093439 3.786606,1.625492 6.476497,-0.0741 l 7.691943,4.804648 -3.886995,4.716512 -3.412314,-1.851297 0.298548,10.280734 -8.447328,0.345797 0.0443,-10.63518 -3.45962,2.774187 -3.009922,-3.772966 z"
       id="path1827-5"
       sodipodi:nodetypes="ccccccccccc" />
    <path
       style="fill:#ffffff;fill-opacity:1;stroke:none;stroke-width:0.264583px;stroke-linecap:butt;stroke-linejoin:miter;stroke-opacity:1"
       d="m 148.9844,34.579957 c 1.80431,1.093439 3.78661,1.625492 6.4765,-0.0741 l 7.69194,4.804648 -3.88699,4.716512 -3.41231,-1.851297 0.29854,10.280734 -8.44732,0.345797 0.0443,-10.63518 -3.45962,2.774187 -3.00993,-3.772966 z"
       id="path1827-5-3"
       sodipodi:nodetypes="ccccccccccc" />
    <path
       style="fill:#ffffff;fill-opacity:1;stroke:none;stroke-width:0.264583px;stroke-linecap:butt;stroke-linejoin:miter;stroke-opacity:1"
       d="m 20.329132,43.497265 c -1.124346,1.208672 -1.543052,2.882352 -3.375943,2.967386 -1.166516,0.05412 -1.793138,-1.679018 -3.100555,-3.041486 l -5.0557228,3.731682 1.8084488,3.945188 2.198945,-0.784404 -0.361943,10.272834 9.452142,0.06771 0.320226,-9.916737 3.217269,1.281173 1.829177,-4.299336 z"
       id="path1827-3"
       sodipodi:nodetypes="cscccccccccc" />
    <path
       style="fill:#ffffff;fill-opacity:1;stroke:none;stroke-width:0.264583px;stroke-linecap:butt;stroke-linejoin:miter;stroke-opacity:1"
       d="m 54.620933,3.4324132 c -1.124346,1.208672 -1.543052,2.882352 -3.375943,2.967386 -1.166516,0.05412 -1.793138,-1.679018 -3.100555,-3.041486 l -5.055721,3.731682 1.808449,3.9451878 2.198943,-0.784404 -0.361942,10.272834 9.452141,0.06771 0.320226,-9.916737 3.217269,1.281173 1.829177,-4.2993358 z"
       id="path1827-3-9"
       sodipodi:nodetypes="cscccccccccc" />
    <path
       style="fill:#ffffff;fill-opacity:1;stroke:none;stroke-width:0.264583px;stroke-linecap:butt;stroke-linejoin:miter;stroke-opacity:1"
       d="m 172.8247,14.578994 c -1.12435,1.208672 -1.54305,2.882352 -3.37594,2.967386 -1.16652,0.05412 -1.79314,-1.679018 -3.10056,-3.041486 l -5.05572,3.731682 1.80845,3.945188 2.19894,-0.784404 -0.36194,10.272834 9.45214,0.06771 0.32023,-9.916737 3.21727,1.281173 1.82917,-4.299336 z"
       id="path1827-3-5"
       sodipodi:nodetypes="cscccccccccc" />
    <path
       style="fill:#ffffff;fill-opacity:1;stroke:none;stroke-width:0.264583px;stroke-linecap:butt;stroke-linejoin:miter;stroke-opacity:1"
       d="m 41.686477,23.986245 c -1.12435,1.208672 -1.54305,2.882352 -3.37594,2.967386 -1.16652,0.05412 -1.79314,-1.679018 -3.10056,-3.041486 l -5.05572,3.731682 1.80845,3.945188 2.19894,-0.784404 -0.36194,10.272834 9.45214,0.06771 0.32023,-9.916737 3.21727,1.281173 1.82917,-4.299336 z"
       id="path1827-3-5-6"
       sodipodi:nodetypes="cscccccccccc" />
    <path
       style="fill:#ffffff;fill-opacity:1;stroke:none;stroke-width:0.264583px;stroke-linecap:butt;stroke-linejoin:miter;stroke-opacity:1"
       d="m 58.491613,26.227583 c 2.36962,2.414605 4.13185,1.853548 6.4765,-0.0741 l 13.41364,11.142167 -1.5277,2.487582 -11.49331,-5.959886 0.3496,9.092444 -8.713627,0.152696 0.25955,-9.253789 -11.066456,5.63796 -0.916023,-2.787893 z"
       id="path1827-3-6"
       sodipodi:nodetypes="ccccccccccc" />
    <path
       style="fill:#ffffff;fill-opacity:1;stroke:none;stroke-width:0.264583px;stroke-linecap:butt;stroke-linejoin:miter;stroke-opacity:1"
       d="m 179.79558,38.394148 c 2.36962,2.414605 4.13185,1.853548 6.4765,-0.0741 l 13.41364,11.142167 -1.5277,2.487582 -11.49331,-5.959886 0.3496,9.092444 -8.71362,0.152696 0.25955,-9.253789 -11.06646,5.63796 -0.91602,-2.787893 z"
       id="path1827-3-6-2"
       sodipodi:nodetypes="ccccccccccc" />
    <rect
       style="fill:#ffffff;stroke:none;stroke-width:0.221081;stroke-linecap:round;stop-color:#000000"
       id="rect15782"
       width="4.0435457"
       height="13.068923"
       x="104.99504"
       y="33.306606" />
    <rect
       style="fill:#ffffff;stroke:none;stroke-width:0.221081;stroke-linecap:round;stop-color:#000000"
       id="rect15782-1"
       width="3.9571662"
       height="13.354199"
       x="37.982117"
       y="-113.77946"
       transform="rotate(90)" />
  </g>
</svg>
